<?xml version="1.0" encoding="UTF-8" standalone="no"?>
<!-- Created with Inkscape (http://www.inkscape.org/) -->

<svg
   xmlns:dc="http://purl.org/dc/elements/1.1/"
   xmlns:cc="http://creativecommons.org/ns#"
   xmlns:rdf="http://www.w3.org/1999/02/22-rdf-syntax-ns#"
   xmlns:svg="http://www.w3.org/2000/svg"
   xmlns="http://www.w3.org/2000/svg"
   xmlns:sodipodi="http://sodipodi.sourceforge.net/DTD/sodipodi-0.dtd"
   xmlns:inkscape="http://www.inkscape.org/namespaces/inkscape"
   id="svg2"
   version="1.1"
   inkscape:version="0.48.0 r9654"
   width="1000"
   height="400"
   sodipodi:docname="zippo.svg">
  <metadata
     id="metadata8">
    <rdf:RDF>
      <cc:Work
         rdf:about="">
        <dc:format>image/svg+xml</dc:format>
        <dc:type
           rdf:resource="http://purl.org/dc/dcmitype/StillImage" />
        <dc:title />
      </cc:Work>
    </rdf:RDF>
  </metadata>
  <defs
     id="defs6">
    <inkscape:path-effect
       effect="skeletal"
       id="path-effect3600"
       is_visible="true"
       pattern="M 0,5 C 0,2.24 2.24,0 5,0 7.76,0 10,2.24 10,5 10,7.76 7.76,10 5,10 2.24,10 0,7.76 0,5 z"
       copytype="single_stretched"
       prop_scale="1"
       scale_y_rel="false"
       spacing="0"
       normal_offset="0"
       tang_offset="0"
       prop_units="false"
       vertical_pattern="false"
       fuse_tolerance="0" />
    <inkscape:path-effect
       effect="spiro"
       id="path-effect3598"
       is_visible="true" />
    <inkscape:path-effect
       effect="skeletal"
       id="path-effect2822"
       is_visible="true"
       pattern="M 0,5 C 0,2.24 2.24,0 5,0 7.76,0 10,2.24 10,5 10,7.76 7.76,10 5,10 2.24,10 0,7.76 0,5 z"
       copytype="single_stretched"
       prop_scale="1"
       scale_y_rel="false"
       spacing="0"
       normal_offset="0"
       tang_offset="0"
       prop_units="false"
       vertical_pattern="false"
       fuse_tolerance="0" />
    <inkscape:path-effect
       effect="spiro"
       id="path-effect2820"
       is_visible="true" />
    <inkscape:perspective
       sodipodi:type="inkscape:persp3d"
       inkscape:vp_x="0 : 0.5 : 1"
       inkscape:vp_y="0 : 1000 : 0"
       inkscape:vp_z="1 : 0.5 : 1"
       inkscape:persp3d-origin="0.5 : 0.33333333 : 1"
       id="perspective10" />
  </defs>
  <sodipodi:namedview
     pagecolor="#ffffff"
     bordercolor="#666666"
     borderopacity="1"
     objecttolerance="10"
     gridtolerance="10"
     guidetolerance="10"
     inkscape:pageopacity="0"
     inkscape:pageshadow="2"
     inkscape:window-width="1280"
     inkscape:window-height="969"
     id="namedview4"
     showgrid="false"
     inkscape:zoom="0.4877161"
     inkscape:cx="718.73799"
     inkscape:cy="311.22255"
     inkscape:window-x="-2"
     inkscape:window-y="-3"
     inkscape:window-maximized="1"
     inkscape:current-layer="svg2" />
  <path
     style="fill:#000000;fill-opacity:1;stroke:none"
     d="M 576.0625 84.03125 L 576.0625 363.84375 L 631.21875 364.84375 L 631.21875 182.3125 C 631.21875 155.65979 660.4568 139.82327 684.375 137.1875 C 712.5421 134.0835 744.0625 158.22549 744.0625 197.84375 C 744.0625 228.66254 713.74091 255.11318 693.40625 258.25 C 665.49922 262.55493 651.44708 251.61111 643.25 245.5 L 643.25 293.625 C 679.22554 314.85654 746.13994 307.14818 777.59375 255.15625 C 802.75783 292.61367 849.63472 312.04489 895.8125 300.125 L 905.71875 297.03125 C 958.78682 277.81481 988.54403 221.39885 974.4375 166.75 C 959.32771 108.21449 899.62926 73.015207 841.09375 88.125 C 813.74246 95.185199 791.47299 111.98012 777.0625 133.84375 C 777.07969 133.72293 777.10771 133.62119 777.125 133.5 C 758.23064 105.80378 725.46656 86.518086 685.375 87.5625 C 652.50282 88.418843 625.1875 102.0625 625.1875 102.0625 L 625.1875 84.03125 L 576.0625 84.03125 z M 868.90625 136.1875 C 901.5841 136.1875 928.09375 162.6659 928.09375 195.34375 C 928.09375 228.0216 901.5841 254.53125 868.90625 254.53125 C 836.2284 254.53125 809.75 228.0216 809.75 195.34375 C 809.75 162.6659 836.2284 136.1875 868.90625 136.1875 z "
     id="path2988" />
  <path
     style="fill:#000000;fill-opacity:1;fill-rule:evenodd;stroke:none"
     d="m 343.40987,84.041393 0,279.800827 55.14702,1.00879 0,-182.52931 c 0,-26.65271 29.24182,-42.48452 53.16002,-45.12029 28.1671,-3.104 62.17796,24.54122 62.17796,60.64949 0,29.27697 -27.77775,57.98738 -53.16002,61.90284 -20.96888,3.23466 -41.93658,-8.13418 -50.13366,-14.24529 l 0,48.11608 c 27.82331,21.15564 151.40976,22.0731 151.40976,-101.2761 0,-58.55975 -55.19712,-106.200601 -109.28526,-104.791567 -32.87218,0.856343 -60.19095,14.520417 -60.19095,14.520417 l 0,-18.035887 z"
     id="path3004" />
  <path
     style="fill:#000000;fill-opacity:1;fill-rule:evenodd;stroke:none"
     d="M 59.084771,89.543868 32.000369,154.22851 c 37.541336,-13.84115 67.502167,-15.7659 95.773631,-15.0401 l -102.774002,161.46706 265.249852,0 c 19.90091,-0.86966 22.88878,-13.62471 23.32438,-23.32438 l 0,-100.02276 -58.41794,0 0,73.70259 -129.3693,0 L 227.0631,89.543868 z"
     id="path3000" />
  <path
     style="fill:#dd1229;fill-opacity:1;fill-rule:evenodd;stroke:none"
     d="m 295.76601,161.00736 c 34.10102,-12.2561 35.34089,-60.78247 3.00856,-98.781272 0.47752,10.785376 -1.41077,15.419673 -4.26213,17.549974 -9.89974,-16.672238 -13.84119,-27.820891 -38.35923,-44.627077 11.53406,43.382515 -5.15685,50.219075 -9.0257,78.724155 -3.6478,26.87637 23.74464,46.05701 24.56997,45.12851 -1.8299,-0.15249 -4.24484,-25.02105 10.78069,-26.07424 14.0758,-0.98662 13.99297,27.67702 13.28784,28.07995 z"
     id="path3596"
     sodipodi:nodetypes="ccccscsc" />
</svg>
