<svg id="Layer_1" data-name="Layer 1" xmlns="http://www.w3.org/2000/svg" viewBox="0 0 799.02 1080"><title>crow</title><g id="JIewNj"><path d="M227.32,399.16c1.44,2.53,3.76,1.93,5.8,1.84,3.18-.15,6,.38,8.21,2.91-.47,1.23-2,.39-2.74,1.61-1.18,2-3.47,2-5.05,1-1.34-.83-2.61-.39-3.8-.8-1.42-.48-2.2,1.31-3.45.76a26.79,26.79,0,0,1-2.84-1.64c-.16-.09-.41-.28-.48-.23-3.38,2.33-7.57,0-11,1.86a5.28,5.28,0,0,1-4.44.34,13.47,13.47,0,0,0-7.2-1c-2,.18-3.94-.5-5.84-.77-1.32-.19-2.52,2.23-3.7.07-.69-1.26-2-1.66-4-2.3,5.54-1.53,10.37-3.2,15.43-.58,3.66-1.05,7.77-.88,10.71-3.91-.36-2.26,2.73-1.77,3-4,.21-1.61,2.43-2.58,3.35-4.43a14.84,14.84,0,0,1,3.13-4.58c1.44-1.27,1.91-3.16,3.22-4.59,1.88-2,1.57-3.1.45-5.86-1.29-3.19-2.59-6.36-3.71-9.63-2.09-6.08-6.91-10.34-12.31-13.47-8.38-4.87-15.2-11.48-21.63-18.48-5.24-5.7-8.52-12.82-11.5-19.87a30.85,30.85,0,0,1-2.3-8.36,75.86,75.86,0,0,0-1.63-8.84c-1.28-5.76-2.05-11.64-3.08-17.42a94.71,94.71,0,0,0-3.74-15.53c-1.85-5.15-6.32-9.17-11.71-9-3.34.11-6.27-1.39-9.5-1.33s-6.69-.31-10,.12c-2.57.34-3.91-2.53-6.46-1.14,2.92-7.29,8.87-10.18,15.16-11.65,3.38-.8,6.49-2.81,10.11-2.61,1.21-1.89,3.31-.58,4.74-1.3,2.6-1.32,5.69-1.43,8-3.37a75.27,75.27,0,0,1,8.41-2.36c3.52,0,7.05.14,10.57,0,5.66-.29,10,2.2,14,5.84,7.79,7.05,13.33,15.89,19.34,24.33,4.65,6.54,9.52,12.68,16.23,17.27,2.64,1.8,4.83,4.26,7.3,6.33,3.05,2.57,6.24,5,9.28,7.64,15.41,13.21,28.65,28.62,43.54,42.33a120.41,120.41,0,0,0,13,11,72.77,72.77,0,0,1,9,7.92C324.27,360,332,365.94,338.63,373c3.65,3.88,6.64,8.21,10,12.32,1.36,1.68.77,3.31.84,4.94s-1.07,2.17-2.52,2.61c-1.24.36-1.09,2.34-2.92,2.71-.88.18-3,.42-3,2.66,0,.78-1.34.3-2.06.44s-2-.43-2.11.4c-.3,1.72-1.15,1.91-2.68,2a10.9,10.9,0,0,1-6.85-1.89c-8.19-5.77-16.83-10.88-24.64-17.23-5.39-4.37-11.27-8.15-16.29-13-2-1.91-4.66-2.22-7-3-3.74-1.34-7.61-2.46-11.47-3.52a8.49,8.49,0,0,0-7.06,1c-3.46,2.32-6.91,3.53-10.92,1.22-.63-.36-2.72-.18-2.51.43.59,1.73-2.49,2-1,4.14,2.22,3.27.47,6.74-1.85,9-5.19,5.12-9.26,11.13-14,16.55C229.34,396.23,229.2,398.38,227.32,399.16Zm-7.14,1.24c5.06-4.3,8.32-9.54,11.82-14.58,1.25-1.8,2.41-3.67,3.5-5.57a1.08,1.08,0,0,0-.53-1.47c-.49-.17-1.42-.33-1.53.32-.39,2.34-2.31,3.46-3.79,4.85-4,3.77-6.33,8.9-10.24,12.77C218.71,397.41,218.68,398.86,220.18,400.4Z"/></g><polygon points="699 1080 682.5 954.48 706.5 748.98 682.5 703.98 694.5 576.48 739.5 367.98 726 318.87 729 256.98 739.5 193.98 727.5 111.48 700.5 87.48 691.5 52.98 655.5 0 799.02 0 799.02 1080 699 1080"/><polygon points="753.84 443.55 579.7 449.09 589.96 446.32 503.9 482.57 495.4 486.15 488.81 484.48 355.18 450.73 357.1 451 283.91 441.18 281.13 440.81 279.81 440.17 216.39 409.3 221.39 409.99 167.37 414.04 168.8 413.7 130.25 425.1 128.88 425.51 127.95 425.33 33 407.16 129.31 415.64 127.01 415.87 164.2 400.62 164.56 400.48 165.63 400.28 218.97 390.8 221.06 390.43 223.97 391.5 290.19 415.8 286.09 414.79 359.9 417.15 360.01 417.15 361.82 417.42 498.18 437.49 483.09 439.4 565.04 394.64 568.6 392.7 575.3 391.88 748.25 370.77 753.84 443.55"/></svg>