<?xml version="1.0" encoding="utf-8"?>
<!-- Generator: Adobe Illustrator 24.0.3, SVG Export Plug-In . SVG Version: 6.00 Build 0)  -->
<svg version="1.1" xmlns="http://www.w3.org/2000/svg" xmlns:xlink="http://www.w3.org/1999/xlink" x="0px" y="0px"
	 viewBox="0 0 766 714.2" style="enable-background:new 0 0 766 714.2;" xml:space="preserve">
<style type="text/css">
	.st0{fill:#FCF8D0;}
	.st1{opacity:0.2;fill:#F2F3F3;enable-background:new    ;}
	.st2{fill:url(#SVGID_1_);}
</style>
<g id="sun_1_">
	<title>landscape</title>
	<g id="sun">
		<circle class="st0" cx="394.4" cy="444.1" r="209.8"/>
		<path class="st1" d="M396.4,130.3v-10.2c0-1.1-0.9-2-2-2s-2,0.9-2,2v10.2c-12.4,1-21.9,11.4-21.9,23.8v29.5
			c0,13.2,10.7,23.9,23.9,23.9c13.2,0,23.9-10.7,23.9-23.9v-29.5C418.3,141.7,408.8,131.3,396.4,130.3z M414.3,183.6
			c0,11-8.9,19.9-19.9,19.9c-11,0-19.9-8.9-19.9-19.9v-29.5c0-11,8.9-19.9,19.9-19.9c11,0,19.9,8.9,19.9,19.9V183.6z"/>
		<path class="st1" d="M394.4,143.4c-2,0-3.6,1.6-3.6,3.6v7.7c0,2,1.6,3.6,3.6,3.6c2,0,3.6-1.6,3.6-3.6V147
			C398,145,396.4,143.4,394.4,143.4z"/>
		<path class="st1" d="M381.3,104.5l13.1-13.1l13.1,13.1c0.4,0.4,0.9,0.6,1.4,0.6c1.1,0,2-0.9,2-2c0-0.5-0.2-1-0.6-1.4l-14.5-14.5
			c-0.8-0.8-2-0.8-2.8,0c0,0,0,0,0,0l-14.5,14.5c-0.8,0.8-0.8,2,0,2.8C379.2,105.3,380.5,105.3,381.3,104.5L381.3,104.5L381.3,104.5
			z"/>
	</g>
</g>
<g id="hill_1_">
	<g id="hill">
		
			<linearGradient id="SVGID_1_" gradientUnits="userSpaceOnUse" x1="379.0321" y1="-33.9151" x2="398.9389" y2="245.6541" gradientTransform="matrix(1 0 0 -1 0 716)">
			<stop  offset="0" style="stop-color:#2A3427"/>
			<stop  offset="0.56" style="stop-color:#32492E"/>
			<stop  offset="0.63" style="stop-color:#374C30"/>
			<stop  offset="0.71" style="stop-color:#445537"/>
			<stop  offset="0.79" style="stop-color:#5B6443"/>
			<stop  offset="0.88" style="stop-color:#7A7953"/>
			<stop  offset="0.96" style="stop-color:#A29467"/>
			<stop  offset="1" style="stop-color:#B4A070"/>
		</linearGradient>
		<polygon class="st2" points="0,674.2 139,567.6 342,524.3 483.1,504.7 629.2,504.7 766,480.9 766,714.2 0,714.2 		"/>
	</g>
</g>
</svg>
