<?xml version="1.0" encoding="utf-8"?>
<!-- Generator: Adobe Illustrator 24.0.3, SVG Export Plug-In . SVG Version: 6.00 Build 0)  -->
<svg version="1.1" id="Layer_1" xmlns="http://www.w3.org/2000/svg" xmlns:xlink="http://www.w3.org/1999/xlink" x="0px" y="0px"
	 viewBox="0 0 136.3 536.3" style="enable-background:new 0 0 136.3 536.3;" xml:space="preserve">
<style type="text/css">
	.st0{fill:none;}
	.st1{fill:#2A394B;}
	.st2{fill:#413B4A;}
	.st3{fill:none;stroke:#342E3C;stroke-miterlimit:10;}
	.st4{fill:#56566D;}
</style>
<g>
	<polygon class="st0" points="48.4,283.6 59.7,283.7 59.7,283.7 	"/>
	<polygon class="st1" points="96.4,600.3 91.6,613.3 106,670.9 140.4,683.1 143.5,682.2 138.9,509.4 138.9,509.6 141.8,284.5 
		59.7,283.7 	"/>
	<polygon class="st2" points="143.5,163.9 143.5,-114.2 79.1,-114.2 12.9,-68.6 3.6,56.1 34.4,246.3 48.4,283.6 59.7,283.7 
		59.7,283.7 141.8,284.5 143.4,163.9 	"/>
</g>
<title>crow</title>
<path class="st2" d="M105.3-114.2l5.9-42.4L86.5-166l-5.9-48v0c0-23.4,14.5-43.3,34.3-47.2l28.6-5.6v152.6H105.3z"/>
<polyline class="st3" points="141.8,284.5 75.9,284 48.4,76.6 54,-39.8 "/>
<path class="st3" d="M62.7,309.9c0,0,13.9-4,16.5-25.4"/>
<path class="st4" d="M79.2,284.5l11.4,2.9l1.3,2.7l-1,2.4l-2.4,0.7l-11-1.1c0,0-3.2,12.7-14.8,17.8v-2l-14.3-24.3l10.6-1.8
	L79.2,284.5z"/>
</svg>
