<?xml version="1.0" encoding="utf-8"?>
<!-- Generator: Adobe Illustrator 24.0.3, SVG Export Plug-In . SVG Version: 6.00 Build 0)  -->
<svg version="1.1" id="Layer_1" xmlns="http://www.w3.org/2000/svg" xmlns:xlink="http://www.w3.org/1999/xlink" x="0px" y="0px"
	 viewBox="0 0 419.7 569" style="enable-background:new 0 0 419.7 569;" xml:space="preserve">
<style type="text/css">
	.st0{fill:#FCF9D1;}
	.st1{opacity:0.2;fill:#F3F4F4;enable-background:new    ;}
	
		.st2{opacity:0.2;fill:none;stroke:#F3F4F4;stroke-width:4;stroke-linecap:round;stroke-linejoin:round;stroke-miterlimit:10;enable-background:new    ;}
</style>
<title>crow</title>
<circle class="st0" cx="209.9" cy="359.1" r="209.8"/>
<path class="st1" d="M209.9,73.3L209.9,73.3c-2,0-3.6-1.6-3.6-3.6V62c0-2,1.6-3.6,3.6-3.6l0,0c2,0,3.6,1.6,3.6,3.6v7.7
	C213.5,71.7,211.8,73.3,209.9,73.3z"/>
<path class="st1" d="M211.9,45.3V35.1c0-1.1-0.9-2-2-2c-1.1,0-2,0.9-2,2v10.2c-12.2,1-21.9,11.3-21.9,23.8v29.5
	c0,13.2,10.7,23.9,23.9,23.9s23.9-10.7,23.9-23.9V69.1C233.8,56.6,224.1,46.3,211.9,45.3z M229.8,98.6c0,11-8.9,19.9-19.9,19.9
	c-11,0-19.9-8.9-19.9-19.9V69.1c0-11,8.9-19.9,19.9-19.9c11,0,19.9,8.9,19.9,19.9V98.6z"/>
<polyline class="st2" points="195.3,18.1 209.9,3.5 224.4,18.1 "/>
</svg>
