<?xml version="1.0" encoding="utf-8"?>
<!-- Generator: Adobe Illustrator 24.0.3, SVG Export Plug-In . SVG Version: 6.00 Build 0)  -->
<svg version="1.1" id="Layer_1" xmlns="http://www.w3.org/2000/svg" xmlns:xlink="http://www.w3.org/1999/xlink" x="0px" y="0px"
	 viewBox="0 0 419.7 569" style="enable-background:new 0 0 419.7 569;" xml:space="preserve">
<style type="text/css">
	.st0{fill:#FCF9D1;}
	.st1{opacity:0.2;fill:none;stroke:#F3F4F4;stroke-width:4;stroke-miterlimit:10;}
	.st2{opacity:0.2;fill:#F3F4F4;}
	.st3{opacity:0.2;fill:none;stroke:#F3F4F4;stroke-width:4;stroke-linecap:round;stroke-miterlimit:10;}
	.st4{opacity:0.2;fill:none;stroke:#F3F4F4;stroke-width:4;stroke-linecap:round;stroke-linejoin:round;stroke-miterlimit:10;}
</style>
<title>crow</title>
<circle class="st0" cx="209.9" cy="359.1" r="209.8"/>
<path class="st1" d="M209.9,120.5L209.9,120.5c-12.1,0-21.9-9.8-21.9-21.9V69.1c0-12.1,9.8-21.9,21.9-21.9h0
	c12.1,0,21.9,9.8,21.9,21.9v29.5C231.8,110.7,222,120.5,209.9,120.5z"/>
<path class="st2" d="M209.9,73.3L209.9,73.3c-2,0-3.6-1.6-3.6-3.6V62c0-2,1.6-3.6,3.6-3.6h0c2,0,3.6,1.6,3.6,3.6v7.7
	C213.5,71.7,211.8,73.3,209.9,73.3z"/>
<line class="st3" x1="209.9" y1="47.2" x2="209.9" y2="35.1"/>
<polyline class="st4" points="195.3,18.1 209.9,3.5 224.4,18.1 "/>
</svg>
