<?xml version="1.0" encoding="utf-8"?>
<!-- Generator: Adobe Illustrator 24.0.3, SVG Export Plug-In . SVG Version: 6.00 Build 0)  -->
<svg version="1.1" id="Layer_1" xmlns="http://www.w3.org/2000/svg" xmlns:xlink="http://www.w3.org/1999/xlink" x="0px" y="0px"
	 viewBox="0 0 419.7 569" style="enable-background:new 0 0 419.7 569;" xml:space="preserve">
<style type="text/css">
	.st0{fill:#FCF9D1;}
	.st1{opacity:0.2;fill:#F3F4F4;enable-background:new    ;}
	
		.st2{opacity:0.2;fill:none;stroke:#F3F4F4;stroke-width:4;stroke-linecap:round;stroke-linejoin:round;stroke-miterlimit:10;enable-background:new    ;}
	.st3{opacity:0.2;enable-background:new    ;}
	.st4{fill:#F3F4F4;}
</style>
<title>crow</title>
<circle class="st0" cx="209.9" cy="359.1" r="209.8"/>
<path class="st1" d="M209.9,73.3L209.9,73.3c-2,0-3.6-1.6-3.6-3.6V62c0-2,1.6-3.6,3.6-3.6l0,0c2,0,3.6,1.6,3.6,3.6v7.7
	C213.5,71.7,211.8,73.3,209.9,73.3z"/>
<path class="st1" d="M211.9,45.3V35.1c0-1.1-0.9-2-2-2s-2,0.9-2,2v10.2c-12.2,1-21.9,11.3-21.9,23.8v29.5
	c0,13.2,10.7,23.9,23.9,23.9s23.9-10.7,23.9-23.9V69.1C233.8,56.6,224.1,46.3,211.9,45.3z M229.8,98.6c0,11-8.9,19.9-19.9,19.9
	S190,109.6,190,98.6V69.1c0-11,8.9-19.9,19.9-19.9s19.9,8.9,19.9,19.9V98.6z"/>
<polyline class="st2" points="195.3,18.1 209.9,3.5 224.4,18.1 "/>
<g class="st3">
	<g>
		<g>
			<path class="st4" d="M259,91.7h-4.4V79h4.4c4,0,6.8,2.7,6.8,6.3S263,91.7,259,91.7z M259,80.3h-3v10.1h3c3.2,0,5.3-2.2,5.3-5
				C264.3,82.5,262.2,80.3,259,80.3z"/>
		</g>
		<g>
			<path class="st4" d="M282.8,91.7l-3.7-4.9h-3.6v4.9H274V79h5.5c2.8,0,4.6,1.5,4.6,3.8c0,2.1-1.5,3.4-3.5,3.7l3.9,5.2H282.8z
				 M279.4,80.3h-3.9v5.2h3.9c1.9,0,3.3-1,3.3-2.6C282.7,81.3,281.5,80.3,279.4,80.3z"/>
		</g>
		<g>
			<path class="st4" d="M304.3,91.7h-1.5l-1.5-3.4h-6.9l-1.5,3.4h-1.5l5.8-12.8h1.3L304.3,91.7z M297.8,80.6l-2.9,6.5h5.8
				L297.8,80.6z"/>
		</g>
		<g>
			<path class="st4" d="M317.2,91.9c-4,0-6.5-2.9-6.5-6.6c0-3.5,2.6-6.6,6.4-6.6c2.1,0,3.5,0.6,4.7,1.7l-0.9,1.1
				c-1-0.9-2.1-1.5-3.9-1.5c-2.8,0-4.8,2.4-4.8,5.2c0,3.1,1.9,5.3,5,5.3c1.5,0,2.8-0.6,3.7-1.3v-3.2h-3.9v-1.3h5.2V90
				C321.1,91,319.3,91.9,317.2,91.9z"/>
		</g>
	</g>
</g>
</svg>
